<svg width="222" height="141" viewBox="0 0 222 141" fill="none" xmlns="http://www.w3.org/2000/svg">
<rect x="3.74407" y="61.8939" width="199.532" height="78" rx="9" transform="rotate(-16.9436 3.74407 61.8939)" fill="white" stroke="#FF6305" stroke-width="6"/>
<path d="M30.7236 69.0259L35.2116 83.7574L32.8967 84.4627L31.0886 78.528C30.9216 78.8855 30.67 79.1922 30.334 79.4479C30.0076 79.6853 29.6831 79.8531 29.3605 79.9514C28.4064 80.2421 27.5898 80.1536 26.9107 79.6858C26.2413 79.1998 25.7528 78.4517 25.445 77.4416L23.5472 71.2122L25.8622 70.507L27.7023 76.5469C27.8519 77.0379 28.0963 77.3621 28.4355 77.5194C28.7748 77.6767 29.1268 77.6998 29.4916 77.5887C29.8563 77.4775 30.1055 77.2636 30.239 76.947C30.3823 76.612 30.3791 76.199 30.2295 75.708L28.4086 69.7312L30.7236 69.0259ZM36.6354 74.0094L39.8132 73.0412L40.4544 75.1457L37.2766 76.1139L38.5909 80.4281L42.5895 79.2099L43.2306 81.3144L36.9171 83.2379L32.4291 68.5063L38.7426 66.5829L39.3837 68.6874L35.3852 69.9056L36.6354 74.0094ZM49.7051 73.3394L50.3014 75.2966C50.6647 76.4891 50.65 77.4979 50.2574 78.3228C49.8745 79.1294 49.1148 79.7058 47.9784 80.052C46.842 80.3982 45.8829 80.3454 45.1013 79.8936C44.3295 79.4234 43.7619 78.5921 43.3986 77.3995L41.0648 69.7391C40.7015 68.5466 40.7113 67.547 41.0942 66.7404C41.4868 65.9155 42.2514 65.33 43.3878 64.9837C44.5242 64.6375 45.4784 64.6995 46.2502 65.1696C47.0318 65.6214 47.6043 66.4436 47.9676 67.6362L48.4036 69.0672L46.2149 69.734L45.734 68.1557C45.5716 67.6225 45.3461 67.2849 45.0575 67.1429C44.7787 66.9825 44.4568 66.9579 44.0921 67.069C43.7273 67.1801 43.4668 67.3821 43.3108 67.675C43.1644 67.9496 43.1725 68.3534 43.3349 68.8866L45.7584 76.8416C45.9208 77.3747 46.1393 77.7145 46.4139 77.8608C46.7025 78.0029 47.0292 78.0183 47.394 77.9072C47.7587 77.7961 48.0143 77.6032 48.1606 77.3287C48.321 77.0498 48.32 76.6438 48.1576 76.1107L47.5164 74.0062L49.7051 73.3394ZM47.6216 63.8779L54.7769 61.698L55.4181 63.8025L52.9979 64.5398L56.8448 77.1668L54.5298 77.8721L50.6829 65.2451L48.2628 65.9824L47.6216 63.8779ZM62.5994 75.4136L60.2845 76.1189L55.7965 61.3874L58.1114 60.6821L60.0348 66.9956L62.6655 66.1942L60.742 59.8807L63.0991 59.1626L67.5871 73.8941L65.2301 74.6122L63.3066 68.2987L60.676 69.1001L62.5994 75.4136ZM76.7576 71.1003L74.4216 71.8119L73.2075 69.261L70.3664 70.1266L70.7808 72.9211L68.6553 73.5687L66.5243 58.1191L69.9126 57.0868L76.7576 71.1003ZM70.052 68.0375L72.2828 67.3579L68.8977 60.2478L70.052 68.0375ZM77.4148 70.9001C77.4415 70.5853 77.4284 70.2903 77.3752 70.0152C77.3178 69.726 77.2335 69.3991 77.1224 69.0343L76.4299 66.7614C76.1948 65.9898 76.1013 65.3053 76.1493 64.7081C76.2071 64.0925 76.4943 63.5757 77.0109 63.1577C75.8554 62.9884 75.0469 62.1462 74.5852 60.6309L74.2326 59.4734C73.8864 58.337 73.8944 57.407 74.2565 56.6834C74.6327 55.9555 75.4241 55.4077 76.6307 55.0401L80.1242 53.9758L84.6122 68.7073L82.2972 69.4126L80.47 63.4148L79.6703 63.6584C79.1371 63.8208 78.794 64.0787 78.641 64.4319C78.488 64.7852 78.5162 65.3056 78.7256 65.993L79.4309 68.308C79.5207 68.6026 79.5884 68.8503 79.6343 69.051C79.6941 69.2474 79.7292 69.413 79.7396 69.5478C79.7641 69.6784 79.7751 69.79 79.7727 69.8827C79.7703 69.9755 79.77 70.0752 79.7718 70.182L77.4148 70.9001ZM77.335 57.1254C76.9281 57.2493 76.6628 57.4605 76.539 57.7588C76.4293 58.0529 76.4557 58.4665 76.6181 58.9997L77.0605 60.4518C77.24 61.041 77.4832 61.4116 77.7901 61.5634C78.111 61.7109 78.489 61.7185 78.9239 61.586L79.8288 61.3103L78.4504 56.7856L77.335 57.1254ZM88.492 51.4265C89.6565 51.0717 90.6134 51.1175 91.3627 51.5639C92.126 52.006 92.6893 52.8233 93.0526 54.0158L93.636 55.9309C93.9994 57.1235 93.9874 58.116 93.6003 58.9086C93.2271 59.6969 92.4583 60.2684 91.2938 60.6232L90.1995 60.9566L91.8857 66.4914L89.5708 67.1967L85.0827 52.4652L88.492 51.4265ZM88.0388 53.8644L89.5584 58.8521L90.6527 58.5187C91.0175 58.4076 91.2682 58.2239 91.4047 57.9676C91.5413 57.7113 91.5284 57.3166 91.366 56.7835L90.6928 54.5738C90.5303 54.0406 90.321 53.7058 90.0647 53.5692C89.8085 53.4326 89.498 53.4199 89.1332 53.531L88.0388 53.8644ZM104.996 62.4974L102.66 63.2091L101.446 60.6582L98.6046 61.5237L99.019 64.3182L96.8934 64.9658L94.7625 49.5162L98.1507 48.4839L104.996 62.4974ZM98.2901 59.4347L100.521 58.7551L97.1359 51.6449L98.2901 59.4347ZM111.114 54.6309L111.71 56.5881C112.073 57.7807 112.059 58.7894 111.666 59.6143C111.283 60.4209 110.524 60.9973 109.387 61.3435C108.251 61.6898 107.292 61.6369 106.51 61.1851C105.738 60.715 105.171 59.8836 104.807 58.6911L102.474 51.0307C102.11 49.8381 102.12 48.8386 102.503 48.032C102.896 47.2071 103.66 46.6215 104.797 46.2753C105.933 45.9291 106.887 45.991 107.659 46.4612C108.441 46.913 109.013 47.7352 109.376 48.9277L109.812 50.3588L107.624 51.0256L107.143 49.4472C106.98 48.9141 106.755 48.5765 106.466 48.4344C106.187 48.274 105.866 48.2494 105.501 48.3606C105.136 48.4717 104.876 48.6737 104.719 48.9666C104.573 49.2411 104.581 49.645 104.744 50.1781L107.167 58.1331C107.33 58.6663 107.548 59.006 107.823 59.1524C108.111 59.2944 108.438 59.3099 108.803 59.1987C109.167 59.0876 109.423 58.8948 109.569 58.6202C109.73 58.3414 109.729 57.9354 109.566 57.4022L108.925 55.2977L111.114 54.6309ZM119.232 52.1578L119.828 54.115C120.191 55.3075 120.177 56.3162 119.784 57.1411C119.401 57.9477 118.642 58.5241 117.505 58.8704C116.369 59.2166 115.41 59.1638 114.628 58.7119C113.856 58.2418 113.289 57.4105 112.925 56.2179L110.592 48.5575C110.228 47.365 110.238 46.3654 110.621 45.5588C111.013 44.7339 111.778 44.1483 112.914 43.8021C114.051 43.4559 115.005 43.5179 115.777 43.988C116.558 44.4398 117.131 45.262 117.494 46.4546L117.93 47.8856L115.742 48.5524L115.261 46.974C115.098 46.4409 114.873 46.1033 114.584 45.9612C114.305 45.8009 113.984 45.7763 113.619 45.8874C113.254 45.9985 112.994 46.2005 112.837 46.4934C112.691 46.768 112.699 47.1718 112.862 47.7049L115.285 55.66C115.448 56.1931 115.666 56.5328 115.941 56.6792C116.229 56.8212 116.556 56.8367 116.921 56.7256C117.285 56.6144 117.541 56.4216 117.687 56.147C117.848 55.8682 117.847 55.4622 117.684 54.9291L117.043 52.8246L119.232 52.1578ZM121.231 41.4524C122.396 41.0977 123.352 41.1434 124.102 41.5898C124.865 42.0319 125.428 42.8492 125.792 44.0417L126.375 45.9568C126.738 47.1494 126.726 48.1419 126.339 48.9345C125.966 49.7228 125.197 50.2943 124.033 50.6491L122.938 50.9825L124.625 56.5173L122.31 57.2226L117.822 42.4911L121.231 41.4524ZM120.778 43.8903L122.297 48.878L123.392 48.5446C123.756 48.4335 124.007 48.2498 124.144 47.9935C124.28 47.7373 124.267 47.3426 124.105 46.8094L123.432 44.5997C123.269 44.0665 123.06 43.7317 122.804 43.5951C122.547 43.4585 122.237 43.4458 121.872 43.5569L120.778 43.8903ZM131.336 50.77C131.498 51.3031 131.719 51.6499 131.998 51.8102C132.287 51.9523 132.613 51.9678 132.978 51.8566C133.343 51.7455 133.598 51.5526 133.745 51.2781C133.901 50.9852 133.898 50.5722 133.735 50.0391L131.312 42.084C131.149 41.5509 130.924 41.2133 130.635 41.0712C130.356 40.9109 130.034 40.8863 129.67 40.9974C129.305 41.1085 129.044 41.3105 128.888 41.6034C128.742 41.878 128.75 42.2818 128.913 42.815L131.336 50.77ZM126.642 43.6675C126.279 42.475 126.303 41.4711 126.714 40.656C127.121 39.8268 127.892 39.2391 129.029 38.8929C130.165 38.5467 131.133 38.6044 131.933 39.0659C132.729 39.5135 133.308 40.3336 133.671 41.5261L136.005 49.1865C136.369 50.379 136.347 51.3899 135.94 52.2191C135.529 53.0342 134.756 53.6149 133.619 53.9611C132.483 54.3074 131.517 54.2567 130.721 53.8091C129.921 53.3475 129.34 52.5205 128.976 51.3279L126.642 43.6675ZM141.128 35.3908L145.616 50.1223L143.301 50.8276L141.493 44.8929C141.326 45.2504 141.074 45.557 140.738 45.8127C140.412 46.0501 140.087 46.218 139.765 46.3163C138.811 46.607 137.994 46.5184 137.315 46.0507C136.646 45.5647 136.157 44.8166 135.849 43.8064L133.951 37.5771L136.266 36.8718L138.106 42.9118C138.256 43.4028 138.5 43.727 138.84 43.8843C139.179 44.0416 139.531 44.0647 139.896 43.9535C140.261 43.8424 140.51 43.6285 140.643 43.3119C140.786 42.9769 140.783 42.5639 140.634 42.0728L138.813 36.0961L141.128 35.3908ZM148.563 42.8079L148.258 44.3728L149.636 48.8975L147.321 49.6027L142.833 34.8712L145.148 34.1659L147.104 40.5847L148.179 33.2427L150.494 32.5374L149.274 40.0844L154.982 47.269L152.604 47.9935L148.563 42.8079ZM163.527 44.6655L161.191 45.3772L159.977 42.8263L157.136 43.6918L157.55 46.4864L155.425 47.1339L153.294 31.6843L156.682 30.6521L163.527 44.6655ZM156.822 41.6028L159.052 40.9232L155.667 33.813L156.822 41.6028Z" fill="#FF5F04"/>
<path d="M192.814 64.0619C193.347 63.8994 193.693 63.6788 193.854 63.4C193.996 63.1114 194.011 62.7847 193.9 62.4199C193.789 62.0551 193.596 61.7996 193.322 61.6532C193.029 61.4971 192.616 61.5003 192.083 61.6627L184.128 64.0863C183.594 64.2487 183.257 64.4742 183.115 64.7628C182.954 65.0416 182.93 65.3634 183.041 65.7282C183.152 66.093 183.354 66.3534 183.647 66.5095C183.922 66.6559 184.325 66.6478 184.859 66.4854L192.814 64.0619ZM185.711 68.7555C184.519 69.1188 183.515 69.095 182.7 68.684C181.87 68.2773 181.283 67.5058 180.936 66.3694C180.59 65.2329 180.648 64.2648 181.11 63.4649C181.557 62.6692 182.377 62.0897 183.57 61.7264L191.23 59.3927C192.423 59.0293 193.433 59.051 194.263 59.4577C195.078 59.8686 195.659 60.6423 196.005 61.7788C196.351 62.9152 196.3 63.8812 195.853 64.6769C195.391 65.4768 194.564 66.0584 193.372 66.4217L185.711 68.7555ZM185.921 59.481L184.639 55.2719L186.744 54.6308L188.026 58.8398L185.921 59.481ZM188.543 50.0456C189.077 49.8831 189.423 49.6625 189.584 49.3837C189.726 49.0951 189.741 48.7684 189.63 48.4036C189.519 48.0388 189.326 47.7833 189.052 47.6369C188.759 47.4808 188.346 47.484 187.813 47.6464L179.857 50.0699C179.324 50.2324 178.987 50.4579 178.845 50.7465C178.684 51.0253 178.66 51.3471 178.771 51.7119C178.882 52.0767 179.084 52.3371 179.377 52.4932C179.651 52.6395 180.055 52.6315 180.588 52.4691L188.543 50.0456ZM181.441 54.7392C180.248 55.1025 179.245 55.0787 178.429 54.6677C177.6 54.261 177.013 53.4895 176.666 52.3531C176.32 51.2166 176.378 50.2484 176.839 49.4485C177.287 48.6529 178.107 48.0734 179.3 47.7101L186.96 45.3763C188.152 45.013 189.163 45.0347 189.993 45.4414C190.808 45.8523 191.388 46.626 191.735 47.7624C192.081 48.8989 192.03 49.8649 191.583 50.6605C191.121 51.4605 190.294 52.0421 189.101 52.4054L181.441 54.7392ZM181.651 45.4646L180.369 41.2556L182.473 40.6145L183.756 44.8235L181.651 45.4646ZM174.994 39.6153C174.857 39.1663 174.697 38.8165 174.513 38.5658C174.325 38.3011 174.119 38.1032 173.895 37.9721C173.671 37.841 173.43 37.7535 173.171 37.7097C172.912 37.6658 172.644 37.6403 172.366 37.633L171.891 36.0757L186.623 31.5877L187.328 33.9027L176.09 37.3264L176.635 39.1152L174.994 39.6153ZM173.258 27.5759C172.598 27.7768 172.19 28.0237 172.034 28.3166C171.86 28.5997 171.828 28.9237 171.939 29.2884C172.051 29.6532 172.253 29.9136 172.545 30.0697C172.82 30.2161 173.224 30.208 173.757 30.0456L175.335 29.5647L176.002 31.7534L174.571 32.1894C173.379 32.5527 172.379 32.5429 171.572 32.1601C170.747 31.7674 170.162 31.0029 169.816 29.8664C169.469 28.73 169.531 27.7759 170.002 27.004C170.453 26.2224 171.276 25.65 172.468 25.2866C173.24 25.0516 173.975 24.9501 174.675 24.9822C175.361 25.0186 176.017 25.1331 176.643 25.3257C177.25 25.5086 177.834 25.7372 178.393 26.0116C178.947 26.2719 179.474 26.5176 179.974 26.7487C180.469 26.9657 180.941 27.1288 181.388 27.2378C181.821 27.3512 182.241 27.3459 182.648 27.2219C182.788 27.1792 182.891 27.1401 182.957 27.1047L181.624 22.7273L183.728 22.0862L185.767 28.7785L183.957 29.3299C183.242 29.5479 182.576 29.628 181.961 29.5702C181.345 29.5124 180.761 29.3836 180.21 29.1836C179.64 28.9739 179.099 28.7325 178.586 28.4593C178.06 28.1905 177.521 27.956 176.969 27.7561C176.413 27.5421 175.835 27.4041 175.233 27.3421C174.632 27.28 173.973 27.358 173.258 27.5759Z" fill="#FF5F04"/>
<path d="M38.2627 117.236L31.7347 95.8087L41.1629 92.9364L42.0954 95.9974L36.0345 97.844L37.7038 103.323L39.6629 102.726C41.3567 102.21 42.7587 102.274 43.869 102.917C44.9996 103.554 45.8292 104.739 46.3577 106.474L47.0571 108.77C47.5856 110.505 47.558 111.951 46.9745 113.11C46.4113 114.263 45.2828 115.098 43.589 115.614L38.2627 117.236ZM42.6565 112.553C43.187 112.391 43.5619 112.121 43.7809 111.742C44 111.363 43.9914 110.785 43.7552 110.01L42.9252 107.286C42.6889 106.51 42.3742 106.026 41.9811 105.834C41.5879 105.641 41.1261 105.626 40.5955 105.788L38.6364 106.384L40.6974 113.149L42.6565 112.553ZM50.5271 99.9519L55.1494 98.5437L56.082 101.605L51.4597 103.013L53.3715 109.288L59.1876 107.516L60.1201 110.577L50.9369 113.375L44.4088 91.9475L53.5921 89.1497L54.5247 92.2108L48.7086 93.9827L50.5271 99.9519ZM63.7722 91.8021C63.48 90.8429 63.1209 90.2498 62.6949 90.0228C62.2831 89.7691 61.8119 89.7231 61.2813 89.8848C60.7508 90.0464 60.3719 90.3402 60.1449 90.7662C59.9116 91.1718 59.9131 91.7623 60.1494 92.5378L60.681 94.2826L57.5892 95.2245L57.1043 93.6328C56.5758 91.8981 56.583 90.4575 57.1257 89.3109C57.6827 88.1377 58.7876 87.2993 60.4406 86.7957C62.0936 86.2921 63.4814 86.3822 64.6041 87.066C65.741 87.7233 66.5737 88.9192 67.1021 90.6538L67.27 91.2048C67.9663 93.4904 67.6283 95.1991 66.2559 96.3308C67.2249 96.4371 68.001 96.8251 68.5841 97.4948C69.1815 98.138 69.6481 99.0106 69.9838 100.113L70.4967 101.796C71.0252 103.531 71.0038 104.998 70.4327 106.198C69.8758 107.371 68.7708 108.21 67.1178 108.713C65.4649 109.217 64.0699 109.14 62.933 108.483C61.8103 107.799 60.9848 106.59 60.4563 104.855L59.7382 102.498L62.9218 101.528L63.7051 104.099C63.9414 104.875 64.2623 105.379 64.6679 105.613C65.0877 105.819 65.5628 105.842 66.0934 105.68C66.624 105.518 66.9926 105.228 67.1993 104.808C67.4263 104.382 67.3937 103.689 67.1015 102.73L66.5886 101.047C66.284 100.047 65.896 99.3954 65.4247 99.093C64.9535 98.7905 64.3301 98.7574 63.5546 98.9937L62.7281 99.2455L61.7956 96.1844L62.8057 95.8766C63.4383 95.6839 63.8784 95.3714 64.1258 94.9392C64.3937 94.5008 64.3971 93.853 64.1359 92.9959L63.7722 91.8021ZM82.4637 103.77L79.0965 104.796L72.5685 83.3685L83.1905 80.1324L89.7185 101.56L86.2901 102.605L80.6947 84.238L76.8683 85.4037L82.4637 103.77ZM91.7503 87.393L96.3725 85.9848L97.3051 89.0459L92.6828 90.4541L94.5946 96.7294L100.411 94.9575L101.343 98.0186L92.16 100.816L85.632 79.3886L94.8153 76.5909L95.7478 79.652L89.9317 81.4239L91.7503 87.393ZM101.861 74.4445C103.555 73.9284 104.946 73.995 106.036 74.6443C107.147 75.2873 107.966 76.4761 108.494 78.2107L109.343 80.9963C109.871 82.7309 109.854 84.1747 109.291 85.3275C108.748 86.4741 107.63 87.3054 105.936 87.8214L104.344 88.3064L106.797 96.3571L103.43 97.3829L96.9018 75.9552L101.861 74.4445ZM101.202 77.9905L103.412 85.2453L105.004 84.7603C105.534 84.5987 105.899 84.3315 106.097 83.9588C106.296 83.586 106.277 83.0119 106.041 82.2364L105.062 79.0223C104.826 78.2468 104.521 77.7597 104.148 77.5611C103.776 77.3624 103.324 77.3439 102.793 77.5056L101.202 77.9905ZM114.559 80.4442L119.181 79.0361L120.114 82.0972L115.492 83.5053L117.403 89.7806L123.219 88.0087L124.152 91.0698L114.969 93.8675L108.441 72.4399L117.624 69.6421L118.557 72.7032L112.74 74.4751L114.559 80.4442ZM129.606 89.4083L126.239 90.4341L119.711 69.0064L130.333 65.7704L136.861 87.1981L133.432 88.2426L127.837 69.876L124.01 71.0417L129.606 89.4083ZM137.43 83.7129C137.818 83.5948 138.128 83.478 138.36 83.3626C138.613 83.2409 138.799 83.0838 138.919 82.8912C139.033 82.6782 139.076 82.4195 139.051 82.1152C139.039 81.7842 138.969 81.3707 138.84 80.8747L134.458 64.5137L143.978 61.6134L150.506 83.041L147.077 84.0855L141.482 65.719L138.543 66.6142L142.121 79.6746C142.656 81.6523 142.664 83.1777 142.143 84.2506C141.643 85.3174 140.556 86.1056 138.883 86.6154L138.362 86.774L137.43 83.7129ZM163.98 78.9359L160.583 79.971L158.817 76.2606L154.684 77.5196L155.287 81.5844L152.195 82.5263L149.096 60.0541L154.024 58.5527L163.98 78.9359ZM154.227 74.481L157.472 73.4925L152.548 63.1505L154.227 74.481ZM158.041 57.3289L168.449 54.1581L169.381 57.2192L165.861 58.2917L171.456 76.6583L168.089 77.6841L162.494 59.3175L158.974 60.39L158.041 57.3289Z" fill="#FF5F04"/>
</svg>
