<svg width="120" height="35" viewBox="0 0 120 35" fill="none" xmlns="http://www.w3.org/2000/svg">
<path d="M27.6439 29.1792C22.0463 25.3747 16.6753 21.6649 11.0777 17.8605C29.2203 18.3909 47.345 18.3267 65.556 17.4182C83.5405 16.415 101.507 14.8174 118.247 5.95724C120.233 5.02535 119.132 1.92436 117.146 2.85625C98.9241 10.8041 80.1554 11.7733 61.2644 12.398C46.1725 12.8478 31.185 13.0476 16.1794 12.6529C19.698 10.5999 23.0943 8.20229 26.5949 5.55477C29.2249 3.71776 26.9551 -1.04532 24.0985 0.697077C16.957 5.05306 9.81552 9.40904 2.67404 13.765C0.914755 14.7915 0.0979476 17.3855 1.92904 18.7369C9.35773 23.8928 16.8908 28.7988 24.3195 33.9547C26.9528 35.9346 30.2772 31.1591 27.6439 29.1792Z" fill="#FFC804"/>
</svg>
