<svg width="74" height="40" viewBox="0 0 74 40" fill="none" xmlns="http://www.w3.org/2000/svg">
<path d="M70.7204 38.9568C67.3966 23.4896 57.7233 9.457 41.9944 4.85693C26.157 0.201344 11.5485 7.87672 4.29386 22.0656C4.29386 22.0656 4.34966 21.9564 4.45825 22.012C6.87741 20.4953 9.41121 18.4865 12.414 18.5074C14.0519 18.5188 14.1363 20.7648 12.4954 21.0272C10.0883 21.4486 8.27397 22.5861 6.2952 23.7772C5.19421 24.5911 3.4854 26.0579 1.96214 25.5544C0.438871 25.051 0.62139 23.3545 0.580689 22.0946C0.558113 19.1918 0.535536 16.289 0.785942 13.3881C0.85383 12.1838 2.54753 12.086 2.75263 13.2923C3.05725 15.3755 3.03308 17.566 3.06472 19.6473C3.0617 19.9211 3.05868 20.195 3.05566 20.4688C7.75089 5.65969 25.1917 -1.39358 39.6824 1.60966C57.66 5.29432 69.3904 20.9294 73.1863 38.1524C73.6055 39.7435 71.0838 40.6571 70.7204 38.9568Z" fill="#FFC804"/>
</svg>
